<svg width="55" height="52" viewBox="0 0 55 52" fill="none" xmlns="http://www.w3.org/2000/svg">
<g opacity="0.7">
<path d="M44.0015 51.7406C42.6857 51.7406 41.518 51.4528 40.4983 50.8772C39.4785 50.3015 38.6726 49.5121 38.0805 48.5088C37.4884 47.4891 37.1924 46.3378 37.1924 45.0549C37.1924 43.7556 37.4884 42.6043 38.0805 41.601C38.6726 40.5977 39.4785 39.8165 40.4983 39.2573C41.518 38.6816 42.6857 38.3938 44.0015 38.3938C45.3008 38.3938 46.4603 38.6816 47.4801 39.2573C48.5162 39.8165 49.3221 40.5977 49.8978 41.601C50.4899 42.5878 50.7859 43.7391 50.7859 45.0549C50.7859 46.3542 50.4899 47.5055 49.8978 48.5088C49.3221 49.5121 48.5162 50.3015 47.4801 50.8772C46.4603 51.4528 45.3008 51.7406 44.0015 51.7406ZM44.0015 49.6683C44.8403 49.6683 45.5886 49.4792 46.2465 49.1009C46.9209 48.7226 47.4472 48.1881 47.8254 47.4973C48.2037 46.7901 48.3929 45.9759 48.3929 45.0549C48.3929 44.1174 48.2037 43.3115 47.8254 42.6372C47.4472 41.9464 46.9209 41.4118 46.2465 41.0336C45.5886 40.6553 44.8403 40.4661 44.0015 40.4661C43.1627 40.4661 42.4143 40.6553 41.7565 41.0336C41.0986 41.4118 40.5723 41.9464 40.1775 42.6372C39.7828 43.3115 39.5854 44.1174 39.5854 45.0549C39.5854 45.9759 39.7828 46.7901 40.1775 47.4973C40.5723 48.1881 41.0986 48.7226 41.7565 49.1009C42.4143 49.4792 43.1627 49.6683 44.0015 49.6683Z" fill="#010000"/>
<path d="M28.1729 51.7406C26.8407 51.7406 25.6483 51.4528 24.5957 50.8772C23.5595 50.3015 22.7454 49.5121 22.1533 48.5088C21.5612 47.5055 21.2651 46.3542 21.2651 45.0549C21.2651 43.7556 21.5612 42.6043 22.1533 41.601C22.7454 40.5977 23.5595 39.8165 24.5957 39.2573C25.6483 38.6816 26.8407 38.3938 28.1729 38.3938C29.3571 38.3938 30.4097 38.6323 31.3308 39.1092C32.2683 39.5698 32.9919 40.2605 33.5018 41.1816L31.7008 42.3411C31.2732 41.6997 30.7469 41.2309 30.1219 40.9349C29.5134 40.6224 28.8555 40.4661 28.1483 40.4661C27.293 40.4661 26.5282 40.6553 25.8539 41.0336C25.1796 41.4118 24.645 41.9464 24.2503 42.6372C23.8556 43.3115 23.6582 44.1174 23.6582 45.0549C23.6582 45.9924 23.8556 46.8065 24.2503 47.4973C24.645 48.1881 25.1796 48.7226 25.8539 49.1009C26.5282 49.4792 27.293 49.6683 28.1483 49.6683C28.8555 49.6683 29.5134 49.5203 30.1219 49.2242C30.7469 48.9117 31.2732 48.4348 31.7008 47.7933L33.5018 48.9282C32.9919 49.8328 32.2683 50.5318 31.3308 51.0252C30.4097 51.5022 29.3571 51.7406 28.1729 51.7406Z" fill="#010000"/>
<path d="M11.578 51.7406C10.18 51.7406 8.94648 51.4528 7.87742 50.8772C6.8248 50.3015 6.00245 49.5121 5.41035 48.5088C4.8347 47.5055 4.54688 46.3542 4.54688 45.0549C4.54688 43.7556 4.82648 42.6043 5.38568 41.601C5.96133 40.5977 6.74257 39.8165 7.72939 39.2573C8.73267 38.6816 9.8593 38.3938 11.1093 38.3938C12.3757 38.3938 13.4941 38.6734 14.4645 39.2326C15.4349 39.7918 16.1914 40.5813 16.7342 41.601C17.2934 42.6043 17.573 43.7802 17.573 45.1289C17.573 45.2276 17.5648 45.3427 17.5483 45.4743C17.5483 45.6059 17.5401 45.7292 17.5237 45.8443H6.39718V44.1421H16.2901L15.328 44.7342C15.3444 43.8954 15.1717 43.147 14.8099 42.4891C14.448 41.8312 13.9464 41.3214 13.305 40.9596C12.68 40.5813 11.9481 40.3921 11.1093 40.3921C10.2869 40.3921 9.55503 40.5813 8.91359 40.9596C8.27215 41.3214 7.77051 41.8395 7.40867 42.5138C7.04684 43.1717 6.86592 43.9283 6.86592 44.7835V45.1782C6.86592 46.0499 7.06329 46.8312 7.45802 47.522C7.86919 48.1963 8.43662 48.7226 9.16029 49.1009C9.88397 49.4792 10.7145 49.6683 11.652 49.6683C12.425 49.6683 13.1241 49.5367 13.749 49.2736C14.3905 49.0104 14.9497 48.6157 15.4267 48.0894L16.7342 49.619C16.1421 50.3097 15.402 50.836 14.5138 51.1979C13.6421 51.5597 12.6635 51.7406 11.578 51.7406Z" fill="#010000"/>
</g>
<path opacity="0.2" d="M0.0639648 16.3755C0.0639648 7.51602 7.246 0.333984 16.1055 0.333984H39.97V32.417H16.1055C7.24601 32.417 0.0639648 25.235 0.0639648 16.3755Z" fill="#62A111"/>
<circle cx="38.6817" cy="16.3887" r="16.0547" fill="#62A111"/>
<path d="M39.0854 22.045C37.9156 22.045 36.8835 21.8024 35.9889 21.3171C35.1082 20.8318 34.4201 20.1664 33.9246 19.3206C33.443 18.4749 33.2021 17.5044 33.2021 16.4091C33.2021 15.3138 33.4361 14.3433 33.904 13.4975C34.3857 12.6518 35.0394 11.9932 35.8651 11.5218C36.7046 11.0366 37.6473 10.7939 38.6932 10.7939C39.7528 10.7939 40.6886 11.0296 41.5006 11.501C42.3125 11.9724 42.9456 12.6379 43.3997 13.4975C43.8676 14.3433 44.1016 15.3346 44.1016 16.4715C44.1016 16.5546 44.0947 16.6517 44.081 16.7626C44.081 16.8735 44.0741 16.9775 44.0603 17.0746H34.7504V15.6396H43.0282L42.2231 16.1387C42.2369 15.4316 42.0924 14.8008 41.7896 14.2462C41.4868 13.6916 41.0671 13.2618 40.5304 12.9568C40.0074 12.6379 39.395 12.4785 38.6932 12.4785C38.0051 12.4785 37.3927 12.6379 36.8559 12.9568C36.3192 13.2618 35.8995 13.6986 35.5967 14.267C35.294 14.8216 35.1426 15.4594 35.1426 16.1803V16.5131C35.1426 17.2479 35.3077 17.9064 35.638 18.4887C35.9821 19.0572 36.4568 19.5009 37.0624 19.8197C37.6679 20.1386 38.3629 20.2981 39.1473 20.2981C39.7941 20.2981 40.379 20.1871 40.9019 19.9653C41.4387 19.7435 41.9066 19.4107 42.3057 18.9671L43.3997 20.2565C42.9043 20.8388 42.285 21.2824 41.5419 21.5875C40.8125 21.8925 39.9937 22.045 39.0854 22.045Z" fill="white"/>
</svg>
