<svg width="89" height="89" viewBox="0 0 89 89" fill="none" xmlns="http://www.w3.org/2000/svg">
<g opacity="0.8">
<path d="M73.7816 88.5397C71.4633 88.5397 69.4059 88.0326 67.6092 87.0183C65.8126 86.0041 64.3926 84.6132 63.3494 82.8455C62.3062 81.0488 61.7846 79.0204 61.7846 76.7601C61.7846 74.4708 62.3062 72.4423 63.3494 70.6747C64.3926 68.907 65.8126 67.5305 67.6092 66.5453C69.4059 65.531 71.4633 65.0239 73.7816 65.0239C76.0708 65.0239 78.1138 65.531 79.9104 66.5453C81.7361 67.5305 83.156 68.907 84.1702 70.6747C85.2134 72.4134 85.7351 74.4418 85.7351 76.7601C85.7351 79.0494 85.2134 81.0778 84.1702 82.8455C83.156 84.6132 81.7361 86.0041 79.9104 87.0183C78.1138 88.0326 76.0708 88.5397 73.7816 88.5397ZM73.7816 84.8885C75.2594 84.8885 76.578 84.5552 77.7371 83.8887C78.9252 83.2222 79.8525 82.2804 80.519 81.0633C81.1855 79.8173 81.5187 78.3829 81.5187 76.7601C81.5187 75.1083 81.1855 73.6884 80.519 72.5003C79.8525 71.2832 78.9252 70.3414 77.7371 69.6749C76.578 69.0084 75.2594 68.6752 73.7816 68.6752C72.3037 68.6752 70.9852 69.0084 69.826 69.6749C68.6669 70.3414 67.7396 71.2832 67.0441 72.5003C66.3487 73.6884 66.0009 75.1083 66.0009 76.7601C66.0009 78.3829 66.3487 79.8173 67.0441 81.0633C67.7396 82.2804 68.6669 83.2222 69.826 83.8887C70.9852 84.5552 72.3037 84.8885 73.7816 84.8885Z" fill="white"/>
<path d="M45.8911 88.5397C43.5439 88.5397 41.443 88.0326 39.5884 87.0183C37.7627 86.0041 36.3283 84.6132 35.2851 82.8455C34.2419 81.0778 33.7203 79.0494 33.7203 76.7601C33.7203 74.4708 34.2419 72.4423 35.2851 70.6747C36.3283 68.907 37.7627 67.5305 39.5884 66.5453C41.443 65.531 43.5439 65.0239 45.8911 65.0239C47.9775 65.0239 49.8321 65.4441 51.4549 66.2845C53.1067 67.0959 54.3817 68.3129 55.28 69.9357L52.1069 71.9787C51.3535 70.8485 50.4262 70.0227 49.325 69.5011C48.2528 68.9505 47.0937 68.6752 45.8476 68.6752C44.3408 68.6752 42.9933 69.0084 41.8052 69.6749C40.6171 70.3414 39.6753 71.2832 38.9798 72.5003C38.2843 73.6884 37.9366 75.1083 37.9366 76.7601C37.9366 78.4118 38.2843 79.8463 38.9798 81.0633C39.6753 82.2804 40.6171 83.2222 41.8052 83.8887C42.9933 84.5552 44.3408 84.8885 45.8476 84.8885C47.0937 84.8885 48.2528 84.6277 49.325 84.106C50.4262 83.5555 51.3535 82.7151 52.1069 81.5849L55.28 83.5844C54.3817 85.1782 53.1067 86.4098 51.4549 87.2792C49.8321 88.1195 47.9775 88.5397 45.8911 88.5397Z" fill="white"/>
<path d="M16.6532 88.5397C14.1901 88.5397 12.0167 88.0326 10.1332 87.0183C8.27855 86.0041 6.82964 84.6132 5.78643 82.8455C4.77219 81.0778 4.26508 79.0494 4.26508 76.7601C4.26508 74.4708 4.7577 72.4423 5.74296 70.6747C6.7572 68.907 8.13366 67.5305 9.87235 66.5453C11.64 65.531 13.625 65.0239 15.8274 65.0239C18.0587 65.0239 20.0292 65.5166 21.7389 66.5018C23.4486 67.4871 24.7816 68.878 25.7379 70.6747C26.7231 72.4423 27.2158 74.5143 27.2158 76.8905C27.2158 77.0644 27.2013 77.2672 27.1723 77.499C27.1723 77.7308 27.1578 77.9482 27.1288 78.151H7.52512V75.1518H24.9555L23.2603 76.195C23.2892 74.7171 22.985 73.3986 22.3474 72.2395C21.7099 71.0804 20.8261 70.182 19.6959 69.5445C18.5948 68.878 17.3052 68.5448 15.8274 68.5448C14.3785 68.5448 13.0889 68.878 11.9588 69.5445C10.8286 70.182 9.94479 71.0948 9.30727 72.283C8.66975 73.4421 8.351 74.7751 8.351 76.2819V76.9774C8.351 78.5133 8.69873 79.8897 9.39421 81.1068C10.1187 82.2949 11.1184 83.2222 12.3934 83.8887C13.6685 84.5552 15.1319 84.8885 16.7836 84.8885C18.1456 84.8885 19.3772 84.6566 20.4784 84.193C21.6085 83.7293 22.5938 83.0339 23.4341 82.1066L25.7379 84.8015C24.6947 86.0186 23.3907 86.9459 21.8258 87.5834C20.29 88.2209 18.5658 88.5397 16.6532 88.5397Z" fill="white"/>
</g>
<path opacity="0.2" d="M0.531799 26.6344C0.531799 12.3604 12.1032 0.789062 26.3772 0.789062H64.8266V52.4798H26.3772C12.1032 52.4798 0.531799 40.9085 0.531799 26.6344Z" fill="white"/>
<circle cx="62.7519" cy="26.6557" r="25.8666" fill="white"/>
<path d="M63.4008 35.7688C61.5161 35.7688 59.8532 35.3779 58.4119 34.596C56.9929 33.8142 55.8843 32.742 55.0861 31.3794C54.31 30.0168 53.922 28.4531 53.922 26.6884C53.922 24.9237 54.2989 23.3601 55.0528 21.9975C55.8288 20.6349 56.882 19.5738 58.2124 18.8143C59.5649 18.0325 61.0837 17.6416 62.7689 17.6416C64.4762 17.6416 65.9839 18.0213 67.2921 18.7808C68.6003 19.5403 69.6202 20.6125 70.3519 21.9975C71.1058 23.3601 71.4827 24.9572 71.4827 26.789C71.4827 26.923 71.4716 27.0793 71.4494 27.258C71.4494 27.4368 71.4383 27.6043 71.4162 27.7606H56.4164V25.4487H69.7532L68.4561 26.2528C68.4783 25.1136 68.2455 24.0972 67.7577 23.2037C67.2699 22.3102 66.5936 21.6177 65.7289 21.1263C64.8863 20.6125 63.8997 20.3557 62.7689 20.3557C61.6602 20.3557 60.6736 20.6125 59.8088 21.1263C58.9441 21.6177 58.2678 22.3214 57.78 23.2372C57.2922 24.1307 57.0483 25.1583 57.0483 26.3199V26.856C57.0483 28.0399 57.3144 29.1009 57.8465 30.0391C58.4009 30.955 59.1658 31.6698 60.1414 32.1835C61.117 32.6973 62.2367 32.9542 63.5006 32.9542C64.5427 32.9542 65.485 32.7755 66.3276 32.4181C67.1923 32.0607 67.9462 31.5246 68.5892 30.8098L70.3519 32.8872C69.5537 33.8254 68.5559 34.5402 67.3586 35.0316C66.1834 35.5231 64.8642 35.7688 63.4008 35.7688Z" fill="#62A111"/>
</svg>
