<svg width="60" height="37" viewBox="0 0 60 37" fill="none" xmlns="http://www.w3.org/2000/svg">
<path opacity="0.2" d="M0 18.4571C0 8.26354 8.26354 0 18.4571 0H45.9153V36.9143H18.4571C8.26353 36.9143 0 28.6507 0 18.4571Z" fill="#62A111"/>
<circle cx="41.1497" cy="18.4723" r="18.4723" fill="#62A111"/>
<path d="M41.6131 24.9807C40.2672 24.9807 39.0796 24.7015 38.0504 24.1432C37.037 23.5848 36.2453 22.8191 35.6752 21.8461C35.121 20.873 34.8439 19.7563 34.8439 18.4961C34.8439 17.2358 35.1131 16.1192 35.6515 15.1461C36.2057 14.173 36.9578 13.4153 37.9079 12.8729C38.8738 12.3146 39.9584 12.0354 41.1618 12.0354C42.381 12.0354 43.4578 12.3066 44.392 12.849C45.3262 13.3913 46.0546 14.1571 46.5771 15.1461C47.1155 16.1192 47.3847 17.2598 47.3847 18.5679C47.3847 18.6636 47.3767 18.7752 47.3609 18.9029C47.3609 19.0305 47.353 19.1501 47.3372 19.2618H36.6253V17.6107H46.1496L45.2233 18.185C45.2391 17.3714 45.0729 16.6456 44.7245 16.0075C44.3762 15.3694 43.8932 14.8749 43.2757 14.524C42.674 14.1571 41.9693 13.9736 41.1618 13.9736C40.3701 13.9736 39.6655 14.1571 39.0479 14.524C38.4304 14.8749 37.9474 15.3774 37.5991 16.0314C37.2507 16.6695 37.0766 17.4033 37.0766 18.2329V18.6157C37.0766 19.4612 37.2666 20.2189 37.6466 20.8889C38.0425 21.543 38.5887 22.0534 39.2854 22.4203C39.9821 22.7872 40.7818 22.9707 41.6843 22.9707C42.4285 22.9707 43.1015 22.8431 43.7032 22.5878C44.3207 22.3326 44.8591 21.9497 45.3183 21.4393L46.5771 22.9228C46.0071 23.5928 45.2945 24.1033 44.4395 24.4542C43.6003 24.8052 42.6581 24.9807 41.6131 24.9807Z" fill="white"/>
</svg>
