<?xml version="1.0" encoding="utf-8"?>
<!-- Generator: Adobe Illustrator 25.0.1, SVG Export Plug-In . SVG Version: 6.00 Build 0)  -->
<svg version="1.1" id="Слой_1" xmlns="http://www.w3.org/2000/svg" xmlns:xlink="http://www.w3.org/1999/xlink" x="0px" y="0px"
	 viewBox="0 0 32 32" style="enable-background:new 0 0 32 32;" xml:space="preserve">
<g>
	<path d="M25.3,30.3H6.7c-2,0-3.7-1.6-3.7-3.7V8c0-2,1.6-3.7,3.7-3.7h18.7C27.4,4.3,29,6,29,8v18.7C29,28.7,27.4,30.3,25.3,30.3z
		 M6.7,6.3C5.7,6.3,5,7.1,5,8v18.7c0,0.9,0.7,1.7,1.7,1.7h18.7c0.9,0,1.7-0.7,1.7-1.7V8c0-0.9-0.7-1.7-1.7-1.7H6.7z"/>
</g>
<g>
	<path d="M21.3,9c-0.6,0-1-0.4-1-1V2.7c0-0.6,0.4-1,1-1s1,0.4,1,1V8C22.3,8.6,21.9,9,21.3,9z"/>
</g>
<g>
	<path d="M10.7,9c-0.6,0-1-0.4-1-1V2.7c0-0.6,0.4-1,1-1s1,0.4,1,1V8C11.7,8.6,11.2,9,10.7,9z"/>
</g>
<g>
	<path d="M28,14.3H4c-0.6,0-1-0.4-1-1s0.4-1,1-1h24c0.6,0,1,0.4,1,1S28.6,14.3,28,14.3z"/>
</g>
</svg>
