<?xml version="1.0" encoding="utf-8"?>
<!-- Generator: Adobe Illustrator 25.0.1, SVG Export Plug-In . SVG Version: 6.00 Build 0)  -->
<svg version="1.1" id="Слой_1" xmlns="http://www.w3.org/2000/svg" xmlns:xlink="http://www.w3.org/1999/xlink" x="0px" y="0px"
	 viewBox="0 0 32 32" style="enable-background:new 0 0 32 32;" xml:space="preserve">
<g>
	<path d="M16,31.7c-0.6,0-1-0.4-1-1V1.3c0-0.6,0.4-1,1-1s1,0.4,1,1v29.3C17,31.2,16.6,31.7,16,31.7z"/>
</g>
<g>
	<path d="M19.3,26.3H8c-0.6,0-1-0.4-1-1s0.4-1,1-1h11.3c1,0,1.9-0.4,2.6-1.1c0.7-0.7,1.1-1.6,1.1-2.6c0-1-0.4-1.9-1.1-2.6
		c-0.7-0.7-1.6-1.1-2.6-1.1h-6.7c-1.5,0-2.9-0.6-4-1.7c-1.1-1.1-1.7-2.5-1.7-4s0.6-2.9,1.7-4c1.1-1.1,2.5-1.7,4-1.7h10
		c0.6,0,1,0.4,1,1s-0.4,1-1,1h-10c-1,0-1.9,0.4-2.6,1.1C9.4,9.4,9,10.4,9,11.3c0,1,0.4,1.9,1.1,2.6c0.7,0.7,1.6,1.1,2.6,1.1h6.7
		c1.5,0,2.9,0.6,4,1.7c1.1,1.1,1.7,2.5,1.7,4c0,1.5-0.6,2.9-1.7,4C22.3,25.7,20.8,26.3,19.3,26.3z"/>
</g>
</svg>
