<?xml version="1.0" encoding="utf-8"?>
<!-- Generator: Adobe Illustrator 25.0.1, SVG Export Plug-In . SVG Version: 6.00 Build 0)  -->
<svg version="1.1" id="Слой_1" xmlns="http://www.w3.org/2000/svg" xmlns:xlink="http://www.w3.org/1999/xlink" x="0px" y="0px"
	 viewBox="0 0 28 28" style="enable-background:new 0 0 28 28;" xml:space="preserve">
<g>
	<path d="M23.3,24.3H4.7c-1.8,0-3.3-1.5-3.3-3.3V7c0-1.8,1.5-3.3,3.3-3.3h18.7c1.8,0,3.3,1.5,3.3,3.3v14
		C26.7,22.8,25.2,24.3,23.3,24.3z M4.7,5.7C3.9,5.7,3.3,6.3,3.3,7v14c0,0.7,0.6,1.3,1.3,1.3h18.7c0.7,0,1.3-0.6,1.3-1.3V7
		c0-0.7-0.6-1.3-1.3-1.3H4.7z"/>
</g>
<g>
	<path d="M14,16.2c-0.2,0-0.4-0.1-0.6-0.2L1.8,7.8C1.3,7.5,1.2,6.9,1.5,6.4C1.8,6,2.5,5.9,2.9,6.2L14,13.9l11.1-7.8
		c0.5-0.3,1.1-0.2,1.4,0.2c0.3,0.5,0.2,1.1-0.2,1.4L14.6,16C14.4,16.1,14.2,16.2,14,16.2z"/>
</g>
</svg>
