<svg width="22" height="22" viewBox="0 0 22 22" fill="none" xmlns="http://www.w3.org/2000/svg">
<path fill-rule="evenodd" clip-rule="evenodd" d="M7.67432 2.98175C8.53452 2.94215 8.80879 2.93335 11 2.93335C13.1912 2.93335 13.4655 2.94288 14.3249 2.98175C15.1844 3.02062 15.7711 3.15775 16.2844 3.35648C16.8219 3.55962 17.3096 3.87715 17.7129 4.28782C18.1236 4.69042 18.4404 5.17735 18.6428 5.71562C18.8423 6.22895 18.9787 6.81562 19.0183 7.67362C19.0579 8.53528 19.0667 8.80955 19.0667 11C19.0667 13.1912 19.0571 13.4655 19.0183 14.3257C18.9794 15.1837 18.8423 15.7704 18.6428 16.2837C18.4404 16.822 18.1231 17.3098 17.7129 17.713C17.3096 18.1236 16.8219 18.4404 16.2844 18.6428C15.7711 18.8423 15.1844 18.9787 14.3264 19.0183C13.4655 19.0579 13.1912 19.0667 11 19.0667C8.80879 19.0667 8.53452 19.0572 7.67432 19.0183C6.81632 18.9794 6.22965 18.8423 5.71632 18.6428C5.17799 18.4404 4.69025 18.1231 4.28705 17.713C3.87666 17.3101 3.55908 16.8226 3.35645 16.2844C3.15772 15.7711 3.02132 15.1844 2.98172 14.3264C2.94212 13.4648 2.93332 13.1905 2.93332 11C2.93332 8.80882 2.94285 8.53455 2.98172 7.67508C3.02059 6.81562 3.15772 6.22895 3.35645 5.71562C3.55938 5.17741 3.87721 4.68991 4.28779 4.28708C4.69042 3.87678 5.17767 3.55921 5.71559 3.35648C6.22892 3.15775 6.81559 3.02135 7.67359 2.98175H7.67432ZM14.2597 4.43375C13.409 4.39488 13.1538 4.38682 11 4.38682C8.84619 4.38682 8.59099 4.39488 7.74032 4.43375C6.95345 4.46968 6.52665 4.60095 6.24212 4.71168C5.86592 4.85835 5.59679 5.03215 5.31445 5.31448C5.04682 5.57485 4.84085 5.89182 4.71165 6.24215C4.60092 6.52668 4.46965 6.95348 4.43372 7.74035C4.39485 8.59102 4.38679 8.84622 4.38679 11C4.38679 13.1538 4.39485 13.409 4.43372 14.2597C4.46965 15.0466 4.60092 15.4734 4.71165 15.7579C4.84072 16.1077 5.04679 16.4252 5.31445 16.6856C5.57479 16.9532 5.89232 17.1593 6.24212 17.2884C6.52665 17.3991 6.95345 17.5304 7.74032 17.5663C8.59099 17.6052 8.84545 17.6132 11 17.6132C13.1545 17.6132 13.409 17.6052 14.2597 17.5663C15.0465 17.5304 15.4733 17.3991 15.7579 17.2884C16.1341 17.1417 16.4032 16.9679 16.6855 16.6856C16.9532 16.4252 17.1593 16.1077 17.2883 15.7579C17.3991 15.4734 17.5303 15.0466 17.5663 14.2597C17.6051 13.409 17.6132 13.1538 17.6132 11C17.6132 8.84622 17.6051 8.59102 17.5663 7.74035C17.5303 6.95348 17.3991 6.52668 17.2883 6.24215C17.1417 5.86595 16.9679 5.59682 16.6855 5.31448C16.4251 5.04687 16.1082 4.8409 15.7579 4.71168C15.4733 4.60095 15.0465 4.46968 14.2597 4.43375ZM9.96965 13.4868C10.5451 13.7263 11.1858 13.7586 11.7824 13.5782C12.379 13.3978 12.8945 13.0159 13.2408 12.4977C13.5871 11.9794 13.7427 11.3571 13.6811 10.7368C13.6195 10.1166 13.3445 9.537 12.903 9.09702C12.6216 8.81577 12.2813 8.60041 11.9066 8.46646C11.532 8.3325 11.1323 8.28328 10.7363 8.32233C10.3404 8.36139 9.95803 8.48775 9.61678 8.69231C9.27552 8.89688 8.98387 9.17456 8.76281 9.50537C8.54175 9.83619 8.39679 10.2119 8.33836 10.6055C8.27994 10.999 8.3095 11.4006 8.42492 11.7814C8.54033 12.1622 8.73874 12.5126 9.00585 12.8075C9.27296 13.1024 9.60212 13.3344 9.96965 13.4868ZM8.06812 8.06815C8.45314 7.68313 8.91022 7.37772 9.41327 7.16935C9.91632 6.96098 10.4555 6.85373 11 6.85373C11.5445 6.85373 12.0837 6.96098 12.5867 7.16935C13.0898 7.37772 13.5468 7.68313 13.9319 8.06815C14.3169 8.45317 14.6223 8.91025 14.8307 9.4133C15.039 9.91635 15.1463 10.4555 15.1463 11C15.1463 11.5445 15.039 12.0837 14.8307 12.5867C14.6223 13.0898 14.3169 13.5469 13.9319 13.9319C13.1543 14.7095 12.0997 15.1463 11 15.1463C9.90032 15.1463 8.8457 14.7095 8.06812 13.9319C7.29054 13.1543 6.8537 12.0997 6.8537 11C6.8537 9.90035 7.29054 8.84573 8.06812 8.06815ZM16.0659 7.47122C16.1613 7.38121 16.2376 7.27298 16.2905 7.15293C16.3433 7.03288 16.3715 6.90345 16.3734 6.7723C16.3753 6.64115 16.3509 6.51095 16.3016 6.38941C16.2523 6.26787 16.1791 6.15746 16.0864 6.06471C15.9936 5.97197 15.8832 5.89877 15.7617 5.84946C15.6401 5.80015 15.5099 5.77573 15.3788 5.77764C15.2476 5.77956 15.1182 5.80776 14.9981 5.86059C14.8781 5.91342 14.7699 5.98981 14.6799 6.08522C14.5048 6.27077 14.409 6.51724 14.4127 6.7723C14.4164 7.02736 14.5194 7.27093 14.6998 7.4513C14.8801 7.63168 15.1237 7.73465 15.3788 7.73837C15.6338 7.74209 15.8803 7.64626 16.0659 7.47122Z" fill="black"/>
</svg>
