<?xml version="1.0" encoding="utf-8"?>
<!-- Generator: Adobe Illustrator 25.0.1, SVG Export Plug-In . SVG Version: 6.00 Build 0)  -->
<svg version="1.1" id="Слой_1" xmlns="http://www.w3.org/2000/svg" xmlns:xlink="http://www.w3.org/1999/xlink" x="0px" y="0px"
	 viewBox="0 0 28 28" style="enable-background:new 0 0 28 28;" xml:space="preserve">
<g>
	<path d="M23.3,26.6c-0.1,0-0.2,0-0.3,0c-3.7-0.4-7.4-1.7-10.5-3.7c-2.9-1.9-5.4-4.4-7.3-7.3C3.2,12.4,1.9,8.7,1.5,5
		c0-0.5,0-0.9,0.2-1.4C1.8,3.2,2,2.8,2.3,2.4C2.6,2.1,3,1.8,3.5,1.6s0.9-0.3,1.3-0.3h3.5c0.8,0,1.6,0.3,2.2,0.8
		c0.6,0.5,1,1.3,1.1,2.1c0.1,1.1,0.4,2.1,0.8,3.1c0.2,0.6,0.3,1.2,0.1,1.9c-0.1,0.6-0.4,1.2-0.9,1.6l-0.9,0.9
		c1.4,2.3,3.3,4.2,5.6,5.6l0.9-0.9c0.5-0.5,1-0.8,1.7-0.9c0.6-0.1,1.3-0.1,1.9,0.1c1,0.4,2,0.6,3.1,0.8c0.8,0.1,1.6,0.5,2.1,1.1
		c0.5,0.6,0.8,1.4,0.8,2.2v3.5c0,0.5-0.1,0.9-0.3,1.3c-0.2,0.4-0.5,0.8-0.8,1.1c-0.3,0.3-0.7,0.6-1.2,0.7
		C24.1,26.5,23.7,26.6,23.3,26.6z M8.3,3.3C8.3,3.3,8.3,3.3,8.3,3.3H4.8c-0.2,0-0.4,0-0.5,0.1C4.1,3.5,3.9,3.6,3.8,3.8
		C3.7,3.9,3.6,4.1,3.5,4.2C3.5,4.4,3.5,4.6,3.5,4.8c0.4,3.4,1.5,6.8,3.4,9.7c1.7,2.7,4,5,6.7,6.7c2.9,1.9,6.2,3.1,9.6,3.4
		c0.2,0,0.4,0,0.5-0.1c0.2-0.1,0.3-0.2,0.5-0.3c0.1-0.1,0.2-0.3,0.3-0.4c0.1-0.2,0.1-0.4,0.1-0.5v-3.5c0,0,0,0,0,0
		c0-0.3-0.1-0.6-0.3-0.9c-0.2-0.3-0.5-0.4-0.8-0.5c-1.2-0.2-2.4-0.4-3.5-0.9c-0.2-0.1-0.5-0.1-0.8-0.1c-0.2,0.1-0.5,0.2-0.7,0.4
		l-1.5,1.5c-0.3,0.3-0.8,0.4-1.2,0.2c-3.1-1.7-5.6-4.3-7.4-7.4c-0.2-0.4-0.2-0.9,0.2-1.2l1.5-1.5c0.2-0.2,0.3-0.4,0.4-0.7
		c0.1-0.2,0-0.5-0.1-0.7c-0.4-1.1-0.7-2.3-0.9-3.5c0-0.3-0.2-0.6-0.4-0.8C8.9,3.4,8.6,3.3,8.3,3.3z"/>
</g>
</svg>
