<svg width="17" height="14" viewBox="0 0 17 14" fill="none" xmlns="http://www.w3.org/2000/svg">
<path d="M16.5662 1.96572C15.9692 2.2303 15.3277 2.40907 14.6534 2.48987C15.3492 2.07355 15.8697 1.41829 16.1179 0.646382C15.4642 1.03467 14.7488 1.30798 14.0027 1.45443C13.501 0.918742 12.8364 0.563672 12.1122 0.444352C11.388 0.325042 10.6447 0.448162 9.9976 0.794592C9.3506 1.14102 8.836 1.69138 8.5338 2.36023C8.2316 3.02908 8.1587 3.77899 8.3263 4.49354C7.0018 4.42704 5.70599 4.08276 4.52309 3.48306C3.34019 2.88336 2.29661 2.04163 1.46008 1.01251C1.17404 1.50592 1.00957 2.07798 1.00957 2.68724C1.00926 3.2357 1.14432 3.77577 1.40278 4.25952C1.66125 4.74327 2.03512 5.15574 2.49123 5.46034C1.96227 5.44351 1.44497 5.30057 0.982399 5.04344V5.08635C0.982349 5.85559 1.24844 6.6012 1.73552 7.1966C2.2226 7.792 2.90067 8.2005 3.65467 8.3529C3.16397 8.4857 2.64951 8.5052 2.15014 8.4101C2.36287 9.072 2.77726 9.6508 3.33529 10.0654C3.89333 10.4801 4.56706 10.7099 5.26219 10.7226C4.08218 11.649 2.62487 12.1515 1.1247 12.1492C0.858959 12.1493 0.593449 12.1338 0.329529 12.1028C1.85229 13.0818 3.62488 13.6015 5.43524 13.5994C11.5635 13.5994 14.9137 8.5238 14.9137 4.1217C14.9137 3.97868 14.9101 3.83423 14.9037 3.69122C15.5553 3.21996 16.1178 2.63639 16.5648 1.96786L16.5662 1.96572Z" fill="black"/>
</svg>
