<?xml version="1.0" encoding="utf-8"?>
<!-- Generator: Adobe Illustrator 25.0.1, SVG Export Plug-In . SVG Version: 6.00 Build 0)  -->
<svg version="1.1" id="Слой_1" xmlns="http://www.w3.org/2000/svg" xmlns:xlink="http://www.w3.org/1999/xlink" x="0px" y="0px"
	 viewBox="0 0 28 28" style="enable-background:new 0 0 28 28;" xml:space="preserve">
<g>
	<path d="M23.3,25.5c-0.6,0-1-0.4-1-1v-2.3c0-1-0.4-1.9-1.1-2.6c-0.7-0.7-1.6-1.1-2.6-1.1H9.3c-1,0-1.9,0.4-2.6,1.1
		s-1.1,1.6-1.1,2.6v2.3c0,0.6-0.4,1-1,1s-1-0.4-1-1v-2.3c0-1.5,0.6-2.9,1.7-4c1.1-1.1,2.5-1.7,4-1.7h9.3c1.5,0,2.9,0.6,4,1.7
		c1.1,1.1,1.7,2.5,1.7,4v2.3C24.3,25.1,23.9,25.5,23.3,25.5z"/>
</g>
<g>
	<path d="M14,13.8c-3.1,0-5.7-2.5-5.7-5.7s2.5-5.7,5.7-5.7s5.7,2.5,5.7,5.7S17.1,13.8,14,13.8z M14,4.5c-2,0-3.7,1.6-3.7,3.7
		s1.6,3.7,3.7,3.7c2,0,3.7-1.6,3.7-3.7S16,4.5,14,4.5z"/>
</g>
</svg>
