<?xml version="1.0" encoding="utf-8"?>
<!-- Generator: Adobe Illustrator 25.0.1, SVG Export Plug-In . SVG Version: 6.00 Build 0)  -->
<svg version="1.1" id="Слой_1" xmlns="http://www.w3.org/2000/svg" xmlns:xlink="http://www.w3.org/1999/xlink" x="0px" y="0px"
	 viewBox="0 0 32 32" style="enable-background:new 0 0 32 32;" xml:space="preserve">
<g>
	<path d="M22.7,29c-0.6,0-1-0.4-1-1v-2.7c0-1.2-0.5-2.2-1.3-3.1c-0.8-0.8-1.9-1.3-3.1-1.3H6.7c-1.2,0-2.2,0.5-3.1,1.3
		s-1.3,1.9-1.3,3.1V28c0,0.6-0.4,1-1,1s-1-0.4-1-1v-2.7c0-1.7,0.7-3.3,1.9-4.5C3.4,19.7,5,19,6.7,19h10.7c1.7,0,3.3,0.7,4.5,1.9
		c1.2,1.2,1.9,2.8,1.9,4.5V28C23.7,28.6,23.2,29,22.7,29z"/>
</g>
<g>
	<path d="M12,15.7c-3.5,0-6.3-2.8-6.3-6.3S8.5,3,12,3s6.3,2.8,6.3,6.3S15.5,15.7,12,15.7z M12,5C9.6,5,7.7,6.9,7.7,9.3
		c0,2.4,1.9,4.3,4.3,4.3c2.4,0,4.3-1.9,4.3-4.3C16.3,6.9,14.4,5,12,5z"/>
</g>
<g>
	<path d="M30.7,29c-0.6,0-1-0.4-1-1v-2.7c0-1-0.3-1.9-0.9-2.7c-0.6-0.8-1.4-1.3-2.3-1.5c-0.5-0.1-0.9-0.7-0.7-1.2
		c0.1-0.5,0.7-0.9,1.2-0.7c1.4,0.3,2.6,1.1,3.4,2.3c0.9,1.1,1.3,2.5,1.3,3.9V28C31.7,28.6,31.2,29,30.7,29z"/>
</g>
<g>
	<path d="M21.3,15.5c-0.4,0-0.9-0.3-1-0.8c-0.1-0.5,0.2-1.1,0.7-1.2c0.9-0.2,1.8-0.8,2.3-1.5c0.6-0.8,0.9-1.7,0.9-2.7
		c0-1-0.3-1.9-0.9-2.7c-0.6-0.8-1.4-1.3-2.3-1.5c-0.5-0.1-0.9-0.7-0.7-1.2c0.1-0.5,0.7-0.9,1.2-0.7c1.4,0.3,2.6,1.1,3.4,2.3
		c0.9,1.1,1.3,2.5,1.3,3.9c0,1.4-0.5,2.8-1.3,3.9c-0.9,1.1-2.1,1.9-3.4,2.3C21.5,15.5,21.4,15.5,21.3,15.5z"/>
</g>
</svg>
