<svg width="22" height="22" viewBox="0 0 22 22" fill="none" xmlns="http://www.w3.org/2000/svg">
<path d="M16.6576 5.27878C15.9179 4.53229 15.0371 3.94047 14.0665 3.5378C13.0958 3.13513 12.0547 2.92967 11.0038 2.9334C6.60046 2.9334 3.0118 6.52105 3.00777 10.9254C3.00777 12.3361 3.37682 13.7084 4.07358 14.9235L2.94324 19.0667L7.18227 17.9555C8.35496 18.5937 9.66875 18.9282 11.0038 18.9286H11.0079C15.4123 18.9286 18.9999 15.3409 19.004 10.9325C19.005 9.88186 18.7981 8.84141 18.3952 7.87108C17.9923 6.90075 17.4014 6.01973 16.6566 5.27878H16.6576ZM11.0038 17.5754C9.813 17.5758 8.64405 17.2553 7.61988 16.6477L7.37788 16.5025L4.8631 17.162L5.53465 14.7087L5.37735 14.4556C4.71166 13.3972 4.35959 12.1718 4.36196 10.9214C4.36196 7.2652 7.3436 4.28255 11.0079 4.28255C11.8808 4.28098 12.7455 4.45222 13.5519 4.7864C14.3584 5.12058 15.0907 5.61109 15.7067 6.22964C16.3249 6.84578 16.8149 7.57821 17.1486 8.38468C17.4822 9.19115 17.6529 10.0557 17.6508 10.9285C17.6467 14.5978 14.6651 17.5754 11.0038 17.5754ZM14.649 12.6003C14.4503 12.5005 13.4692 12.0175 13.2847 11.9489C13.1012 11.8834 12.9671 11.8491 12.836 12.0487C12.7019 12.2474 12.3187 12.7001 12.2038 12.8302C12.0888 12.9643 11.9698 12.9794 11.7702 12.8806C11.5715 12.7798 10.9272 12.57 10.1649 11.8874C9.57 11.358 9.17171 10.7026 9.05272 10.504C8.93777 10.3043 9.04163 10.1974 9.14146 10.0976C9.22918 10.0089 9.3401 9.86367 9.43992 9.74872C9.54076 9.63377 9.57403 9.54907 9.63957 9.41597C9.70511 9.28085 9.67386 9.1659 9.62445 9.06608C9.57403 8.96625 9.17574 7.98111 9.00735 7.58383C8.84602 7.19159 8.68166 7.24604 8.55864 7.241C8.44369 7.23394 8.30958 7.23394 8.17547 7.23394C8.0742 7.23645 7.97454 7.25988 7.88275 7.30274C7.79096 7.3456 7.70902 7.40697 7.64207 7.483C7.45855 7.68265 6.94531 8.16564 6.94531 9.15078C6.94531 10.1359 7.66122 11.0827 7.76206 11.2169C7.86087 11.351 9.16767 13.3666 11.1732 14.2338C11.6472 14.4405 12.0202 14.5625 12.3117 14.6553C12.7906 14.8085 13.2232 14.7853 13.568 14.7359C13.9512 14.6774 14.7488 14.2519 14.9172 13.7851C15.0826 13.3172 15.0826 12.9179 15.0321 12.8342C14.9827 12.7495 14.8486 12.7001 14.649 12.6003Z" fill="black"/>
</svg>
